<svg width="41" height="40" viewBox="0 0 41 40" fill="none" xmlns="http://www.w3.org/2000/svg">
<g clip-path="url(#clip0_334_780)">
<path d="M11.7503 0.139875C9.62228 0.240275 8.16908 0.579875 6.89868 1.07908C5.58388 1.59148 4.46948 2.27908 3.36068 3.39188C2.25188 4.50468 1.56908 5.61988 1.06028 6.93668C0.56788 8.20988 0.23428 9.66428 0.14028 11.7935C0.0462797 13.9227 0.0254797 14.6071 0.0358797 20.0383C0.0462797 25.4695 0.0702797 26.1503 0.17348 28.2839C0.27508 30.4115 0.61348 31.8643 1.11268 33.1351C1.62588 34.4499 2.31268 35.5639 3.42588 36.6731C4.53908 37.7823 5.65348 38.4635 6.97348 38.9731C8.24548 39.4647 9.70028 39.7999 11.8291 39.8931C13.9579 39.9863 14.6431 40.0079 20.0727 39.9975C25.5023 39.9871 26.1859 39.9631 28.3191 39.8619C30.4523 39.7607 31.8975 39.4199 33.1687 38.9231C34.4835 38.4087 35.5983 37.7231 36.7067 36.6095C37.8151 35.4959 38.4975 34.3799 39.0059 33.0623C39.4987 31.7903 39.8335 30.3355 39.9259 28.2083C40.0191 26.0735 40.0411 25.3919 40.0307 19.9615C40.0203 14.5311 39.9959 13.8503 39.8947 11.7175C39.7935 9.58468 39.4547 8.13628 38.9559 6.86468C38.4419 5.54988 37.7559 4.43668 36.6431 3.32668C35.5303 2.21668 34.4135 1.53468 33.0963 1.02748C31.8235 0.535075 30.3695 0.199475 28.2407 0.107475C26.1119 0.0154752 25.4267 -0.00812478 19.9951 0.00227522C14.5635 0.0126752 13.8835 0.0358752 11.7503 0.139875ZM11.9839 36.2951C10.0339 36.2103 8.97508 35.8863 8.26948 35.6151C7.33508 35.2551 6.66948 34.8199 5.96628 34.1235C5.26308 33.4271 4.83108 32.7591 4.46628 31.8267C4.19228 31.1211 3.86228 30.0635 3.77108 28.1135C3.67188 26.0059 3.65108 25.3731 3.63948 20.0335C3.62788 14.6939 3.64828 14.0619 3.74068 11.9535C3.82388 10.0051 4.14988 8.94508 4.42068 8.23988C4.78068 7.30428 5.21428 6.63988 5.91228 5.93708C6.61028 5.23428 7.27628 4.80148 8.20948 4.43668C8.91428 4.16148 9.97188 3.83428 11.9211 3.74148C14.0303 3.64148 14.6623 3.62148 20.0011 3.60988C25.3399 3.59828 25.9735 3.61828 28.0835 3.71108C30.0319 3.79588 31.0923 4.11868 31.7967 4.39108C32.7315 4.75108 33.3967 5.18348 34.0995 5.88268C34.8023 6.58188 35.2355 7.24548 35.6003 8.18068C35.8759 8.88348 36.2031 9.94068 36.2951 11.8911C36.3955 14.0003 36.4183 14.6327 36.4279 19.9711C36.4375 25.3095 36.4187 25.9435 36.3263 28.0511C36.2411 30.0011 35.9179 31.0603 35.6463 31.7667C35.2863 32.7007 34.8523 33.3667 34.1539 34.0691C33.4555 34.7715 32.7903 35.2043 31.8567 35.5691C31.1527 35.8439 30.0939 36.1719 28.1463 36.2647C26.0371 36.3639 25.4051 36.3847 20.0643 36.3963C14.7235 36.4079 14.0935 36.3863 11.9843 36.2951M28.2883 9.31068C28.2891 9.78538 28.4306 10.2492 28.695 10.6435C28.9594 11.0377 29.3348 11.3447 29.7737 11.5256C30.2126 11.7065 30.6953 11.7532 31.1607 11.6597C31.6261 11.5663 32.0534 11.3369 32.3884 11.0006C32.7235 10.6643 32.9513 10.2362 33.043 9.77047C33.1348 9.30471 33.0863 8.82221 32.9038 8.38398C32.7213 7.94576 32.413 7.5715 32.0177 7.30854C31.6225 7.04558 31.1582 6.90573 30.6835 6.90668C30.0471 6.90795 29.4373 7.16191 28.9881 7.61273C28.5389 8.06354 28.2872 8.67429 28.2883 9.31068ZM9.76428 20.0199C9.77548 25.6919 14.3819 30.2795 20.0527 30.2687C25.7235 30.2579 30.3143 25.6519 30.3035 19.9799C30.2927 14.3079 25.6851 9.71908 20.0135 9.73028C14.3419 9.74148 9.75348 14.3487 9.76428 20.0199ZM13.3667 20.0127C13.3641 18.6941 13.7525 17.4044 14.4829 16.3066C15.2133 15.2088 16.2528 14.3522 17.47 13.8452C18.6872 13.3382 20.0274 13.2035 21.3211 13.4582C22.6149 13.7129 23.804 14.3455 24.7383 15.276C25.6725 16.2065 26.3098 17.3932 26.5696 18.6859C26.8294 19.9786 26.7 21.3194 26.1978 22.5386C25.6956 23.7578 24.8432 24.8007 23.7483 25.5354C22.6534 26.2701 21.3652 26.6637 20.0467 26.6663C19.1712 26.6681 18.3038 26.4975 17.4943 26.1641C16.6847 25.8307 15.9488 25.3411 15.3284 24.7232C14.7081 24.1053 14.2156 23.3713 13.879 22.5631C13.5424 21.7548 13.3683 20.8882 13.3667 20.0127Z" fill="#FCFCFD"/>
</g>
<defs>
<clipPath id="clip0_334_780">
<rect width="40" height="40" fill="white" transform="translate(0.0334473)"/>
</clipPath>
</defs>
</svg>
