<svg width="42" height="40" viewBox="0 0 42 40" fill="none" xmlns="http://www.w3.org/2000/svg">
<path d="M35.1055 33.8024H29.1689V24.5969C29.1689 22.4017 29.1293 19.5759 26.0812 19.5759C22.9892 19.5759 22.5161 21.9676 22.5161 24.4371V33.8018H16.5794V14.8715H22.2786V17.4585H22.3584C22.9287 16.4929 23.7529 15.6986 24.7432 15.1601C25.7334 14.6216 26.8526 14.3592 27.9815 14.4006C33.9986 14.4006 35.108 18.3195 35.108 23.4176L35.1055 33.8024ZM9.88084 12.2839C9.19946 12.284 8.53332 12.0841 7.96671 11.7093C7.40009 11.3346 6.95845 10.8019 6.69759 10.1787C6.43672 9.55538 6.36835 8.86952 6.50117 8.20779C6.63398 7.54605 6.962 6.93818 7.44372 6.46103C7.92544 5.98388 8.53925 5.65888 9.20751 5.52714C9.87578 5.3954 10.5685 5.46283 11.198 5.72091C11.8276 5.97898 12.3657 6.4161 12.7444 6.97701C13.123 7.53791 13.3252 8.1974 13.3254 8.87207C13.3254 9.32003 13.2364 9.76362 13.0633 10.1775C12.8903 10.5914 12.6366 10.9675 12.3167 11.2843C11.9969 11.6011 11.6171 11.8525 11.1992 12.024C10.7812 12.1955 10.3333 12.2838 9.88084 12.2839ZM12.8492 33.8024H6.90631V14.8715H12.8492V33.8024ZM38.0652 0.00270285H3.92315C3.14822 -0.00595609 2.40148 0.290365 1.84709 0.82655C1.2927 1.36274 0.97601 2.09492 0.966553 2.86221V36.8083C0.975687 37.5759 1.29219 38.3086 1.84656 38.8454C2.40093 39.3821 3.14783 39.679 3.92315 39.6708H38.0652C38.8421 39.6805 39.5911 39.3844 40.1476 38.8477C40.7042 38.311 41.0228 37.5775 41.0336 36.8083V2.85976C41.0225 2.09095 40.7036 1.35793 40.1471 0.82176C39.5905 0.285587 38.8417 -0.00988707 38.0652 0.000252608" fill="#FCFCFD"/>
</svg>
