<svg width="208" height="52" viewBox="0 0 208 52" fill="none" xmlns="http://www.w3.org/2000/svg">
<g clip-path="url(#clip0_230_29)">
<path fill-rule="evenodd" clip-rule="evenodd" d="M17.1766 3.98843C16.9839 3.98862 16.7997 4.06665 16.6675 4.20416L0.496237 21.0198C0.230632 21.2959 0.243533 21.7311 0.525058 21.9916L11.8555 32.4774L26.9057 16.8275L29.3991 19.135L14.8134 34.3018C14.819 34.2963 14.8246 34.2907 14.8301 34.285L34.5634 13.7654C34.829 13.4892 34.8161 13.0541 34.5345 12.7936L25.2144 4.16824C25.0842 4.04772 24.9119 3.98067 24.7328 3.98085L17.1766 3.98843Z" fill="#0F1A24"/>
<path fill-rule="evenodd" clip-rule="evenodd" d="M23.9989 47.707C24.1919 47.707 24.3762 47.6292 24.5085 47.4912L40.7597 30.5927C41.0252 30.3166 41.0124 29.8814 40.7309 29.6209L27.4165 17.2991C27.4085 17.2916 27.4002 17.2843 27.3919 17.2773L29.399 19.1348L14.3485 34.7851L11.8558 32.4781L6.69255 37.8471C6.42692 38.1233 6.43981 38.5584 6.72136 38.8189L16.1255 47.522C16.2556 47.6426 16.4277 47.7093 16.6066 47.7093L23.9989 47.707Z" fill="#0F1A24"/>
<mask id="mask0_230_29" style="mask-type:luminance" maskUnits="userSpaceOnUse" x="45" y="14" width="163" height="24">
<path d="M208 14.4956H45.4414V37.5044H208V14.4956Z" fill="white"/>
</mask>
<g mask="url(#mask0_230_29)">
<path d="M45.6393 15.2122H57.2843V18.3518H49.3559V22.1728H55.7974V25.1664H49.3559V29.1091H57.5569V32.2487H45.6393V15.2122ZM78.178 20.9316C79.0203 21.8321 79.4663 23.3167 79.4663 25.3854V32.2731H75.9729V25.2638C75.9729 23.3654 75.2294 22.4162 73.7678 22.4162C72.9995 22.4162 72.3802 22.684 71.9342 23.2194C71.4634 23.7548 71.2404 24.485 71.2404 25.4098V32.2731H67.7471V25.2638C67.7471 23.3654 67.0036 22.4162 65.5171 22.4162C64.7489 22.4162 64.1295 22.7083 63.6836 23.2437C63.2376 23.7791 63.0146 24.5093 63.0146 25.4341V32.2731H59.5212V19.7391H62.5686L62.8909 21.2967C63.3121 20.7613 63.8325 20.3475 64.427 20.0554C65.0215 19.7634 65.765 19.6174 66.6569 19.593C68.4657 19.593 69.7291 20.2988 70.4478 21.7104C70.8938 21.029 71.5131 20.5179 72.2561 20.1528C72.9995 19.7877 73.8667 19.593 74.8331 19.593C76.1959 19.593 77.3108 20.0554 78.178 20.9316ZM92.0418 20.3962C92.9338 20.9316 93.6271 21.6618 94.1228 22.6353C94.6184 23.6088 94.8911 24.7526 94.8911 26.0182C94.8911 27.3081 94.6184 28.4277 94.1228 29.3769C93.6271 30.3504 92.9338 31.0805 92.0418 31.616C91.1499 32.1514 90.1338 32.3948 88.994 32.3948C87.359 32.3948 86.0703 31.835 85.1539 30.6668V37.1163H81.6601V19.7391H84.708L85.0546 21.467C85.4758 20.9073 86.0211 20.4448 86.69 20.1041C87.359 19.7634 88.1268 19.593 89.0188 19.593C90.1586 19.593 91.1499 19.8607 92.0418 20.3962ZM90.4809 28.5981C91.0506 27.9166 91.348 27.0404 91.348 25.9695C91.348 24.8987 91.0506 24.0469 90.4809 23.3897C89.8859 22.7326 89.1429 22.3919 88.2013 22.3919C87.2597 22.3919 86.4919 22.7326 85.9466 23.3897C85.3769 24.0469 85.1043 24.8987 85.1043 25.9695C85.1043 27.0648 85.3769 27.9409 85.9466 28.5981C86.4919 29.2795 87.2597 29.5959 88.2013 29.5959C89.1429 29.5959 89.8859 29.2795 90.4809 28.5981ZM109.368 29.3525V32.2487H107.584C105.974 32.2487 105.181 31.5673 105.23 30.2044C104.759 30.9345 104.19 31.4699 103.521 31.835C102.827 32.2244 102.009 32.3948 101.068 32.3948C99.6306 32.3948 98.4912 32.0784 97.6236 31.4456C96.7565 30.8128 96.3354 29.8879 96.3354 28.7197C96.3354 27.4055 96.831 26.3833 97.8223 25.6532C98.8131 24.923 100.275 24.5579 102.183 24.5579H104.71V23.9495C104.71 23.3897 104.487 22.9516 104.066 22.6109C103.62 22.2702 103.05 22.0998 102.331 22.0998C101.687 22.0998 101.142 22.2459 100.746 22.5136C100.324 22.8056 100.077 23.1707 100.003 23.6331H96.6328C96.7321 22.3675 97.3266 21.3697 98.3671 20.6639C99.4076 19.9581 100.77 19.593 102.505 19.593C104.289 19.593 105.676 19.9824 106.667 20.7613C107.658 21.5401 108.154 22.684 108.154 24.1442V28.5494C108.154 28.8658 108.204 29.0848 108.352 29.1822C108.476 29.3038 108.674 29.3525 108.971 29.3525H109.368ZM104.71 26.8457H102.158C101.414 26.8457 100.845 26.9917 100.449 27.2838C100.052 27.5759 99.8535 27.9653 99.8535 28.4764C99.8535 28.9144 100.003 29.2795 100.349 29.5229C100.696 29.7906 101.142 29.9123 101.737 29.9123C102.629 29.9123 103.347 29.6689 103.892 29.1578C104.413 28.6467 104.685 27.9653 104.71 27.0891V26.8457ZM112.761 19.7391L115.858 28.7197L118.881 19.7391H122.623L116.973 34.0254C116.676 34.8042 116.379 35.3883 116.131 35.8264C115.858 36.2645 115.512 36.5809 115.115 36.7999C114.719 37.0189 114.199 37.1163 113.554 37.1163H110.16V34.2201H112.092C112.538 34.2201 112.861 34.1471 113.059 34.0011C113.257 33.855 113.43 33.5873 113.629 33.1492L113.951 32.3217L109.045 19.7391H112.761ZM142.466 20.9316C143.308 21.8321 143.754 23.3167 143.754 25.3854V32.2731H140.261V25.2638C140.261 23.3654 139.517 22.4162 138.056 22.4162C137.287 22.4162 136.668 22.684 136.222 23.2194C135.751 23.7548 135.528 24.485 135.528 25.4098V32.2731H132.035V25.2638C132.035 23.3654 131.292 22.4162 129.805 22.4162C129.037 22.4162 128.417 22.7083 127.971 23.2437C127.526 23.7791 127.303 24.5093 127.303 25.4341V32.2731H123.809V19.7391H126.857L127.179 21.2967C127.6 20.7613 128.12 20.3475 128.715 20.0554C129.309 19.7634 130.053 19.6174 130.945 19.593C132.754 19.593 134.017 20.2988 134.736 21.7104C135.182 21.029 135.801 20.5179 136.544 20.1528C137.287 19.7877 138.155 19.593 139.121 19.593C140.484 19.593 141.599 20.0554 142.466 20.9316ZM146.246 22.6353C146.791 21.6618 147.534 20.9316 148.5 20.3962C149.467 19.8607 150.582 19.593 151.87 19.593C153.158 19.593 154.273 19.8607 155.264 20.3475C156.255 20.8343 157.024 21.5401 157.568 22.4406C158.114 23.341 158.411 24.3876 158.436 25.6045C158.436 26.0426 158.386 26.432 158.337 26.7727H149.095V26.8701C149.169 27.7949 149.467 28.5007 149.987 29.0118C150.482 29.5472 151.201 29.7906 152.093 29.7906C152.787 29.7906 153.381 29.6446 153.852 29.3525C154.323 29.0605 154.645 28.5981 154.794 28.0139H158.237C158.089 28.8414 157.767 29.5959 157.271 30.253C156.751 30.9345 156.082 31.4456 155.24 31.835C154.397 32.2244 153.431 32.3948 152.341 32.3948C150.903 32.3948 149.69 32.1514 148.649 31.616C147.608 31.1048 146.816 30.3747 146.27 29.4012C145.726 28.4277 145.453 27.3081 145.453 26.0182C145.453 24.7283 145.701 23.6088 146.246 22.6353ZM154.942 24.5336C154.818 23.7791 154.496 23.195 153.976 22.7813C153.456 22.3675 152.812 22.1485 152.018 22.1485C151.251 22.1485 150.606 22.3675 150.086 22.8056C149.566 23.2437 149.269 23.8035 149.169 24.5336H154.942ZM171.321 20.956C172.262 21.8808 172.758 23.3654 172.758 25.4585V32.2487H169.264V25.6532C169.264 23.5114 168.397 22.4162 166.688 22.4162C165.771 22.4162 165.077 22.7326 164.581 23.3167C164.086 23.9252 163.838 24.777 163.838 25.8479V32.2487H160.345V19.7391H163.392L163.714 21.2967C164.16 20.7613 164.681 20.3475 165.325 20.0554C165.944 19.7634 166.712 19.593 167.654 19.593C169.141 19.593 170.354 20.0554 171.321 20.956ZM175.777 22.6353H173.671V19.7391H175.777V16.2344H179.27V19.7391H182.169V22.6353H179.27V28.1113C179.27 28.5494 179.344 28.8658 179.543 29.0605C179.741 29.2552 180.063 29.3525 180.509 29.3525H182.318V32.2487H179.419C176.991 32.2487 175.777 31.0562 175.777 28.6711V22.6353ZM184.331 28.9144C184.727 28.525 185.223 28.3303 185.842 28.3303C186.437 28.3303 186.932 28.525 187.329 28.9144C187.725 29.3038 187.948 29.7906 187.948 30.3747C187.948 30.9588 187.725 31.4456 187.329 31.835C186.932 32.2244 186.437 32.3948 185.842 32.3948C185.223 32.3948 184.727 32.2244 184.331 31.835C183.934 31.4456 183.736 30.9588 183.736 30.3747C183.736 29.7906 183.934 29.3038 184.331 28.9144ZM202.666 29.3525V32.2487H200.883C199.272 32.2487 198.479 31.5673 198.529 30.2044C198.058 30.9345 197.488 31.4699 196.819 31.835C196.126 32.2244 195.308 32.3948 194.367 32.3948C192.929 32.3948 191.79 32.0784 190.922 31.4456C190.055 30.8128 189.634 29.8879 189.634 28.7197C189.634 27.4055 190.13 26.3833 191.121 25.6532C192.112 24.923 193.573 24.5579 195.482 24.5579H198.008V23.9495C198.008 23.3897 197.785 22.9516 197.364 22.6109C196.918 22.2702 196.349 22.0998 195.63 22.0998C194.986 22.0998 194.441 22.2459 194.044 22.5136C193.623 22.8056 193.375 23.1707 193.301 23.6331H189.932C190.03 22.3675 190.625 21.3697 191.666 20.6639C192.706 19.9581 194.069 19.593 195.803 19.593C197.587 19.593 198.975 19.9824 199.966 20.7613C200.957 21.5401 201.453 22.684 201.453 24.1442V28.5494C201.453 28.8658 201.502 29.0848 201.651 29.1822C201.774 29.3038 201.973 29.3525 202.27 29.3525H202.666ZM198.008 26.8457H195.457C194.713 26.8457 194.144 26.9917 193.747 27.2838C193.35 27.5759 193.152 27.9653 193.152 28.4764C193.152 28.9144 193.301 29.2795 193.648 29.5229C193.995 29.7906 194.441 29.9123 195.036 29.9123C195.928 29.9123 196.646 29.6689 197.191 29.1578C197.711 28.6467 197.984 27.9653 198.008 27.0891V26.8457ZM207.214 15.0905C207.586 15.4556 207.784 15.918 207.784 16.4534C207.784 17.0132 207.586 17.4756 207.214 17.8407C206.818 18.2301 206.347 18.4005 205.777 18.4005C205.183 18.4005 204.712 18.2301 204.315 17.8407C203.919 17.4756 203.745 17.0132 203.745 16.4534C203.745 15.918 203.919 15.4556 204.315 15.0905C204.712 14.7254 205.183 14.5307 205.777 14.5307C206.347 14.5307 206.818 14.7254 207.214 15.0905ZM204.018 19.7391H207.511V32.2487H204.018V19.7391Z" fill="#0F1A24"/>
</g>
</g>
<defs>
<clipPath id="clip0_230_29">
<rect width="208" height="52" fill="white"/>
</clipPath>
</defs>
</svg>
