<svg width="209" height="52" viewBox="0 0 209 52" fill="none" xmlns="http://www.w3.org/2000/svg">
<g clip-path="url(#clip0_334_755)">
<path fill-rule="evenodd" clip-rule="evenodd" d="M18.1431 3.98853C17.9504 3.98873 17.7663 4.06675 17.634 4.20427L1.46279 21.0199C1.19718 21.296 1.21009 21.7312 1.49161 21.9917L12.822 32.4775L27.8722 16.8276L30.3656 19.1351L15.7799 34.3019C15.7856 34.2964 15.7911 34.2908 15.7966 34.2851L35.5299 13.7655C35.7955 13.4893 35.7826 13.0542 35.5011 12.7937L26.181 4.16835C26.0508 4.04783 25.8784 3.98078 25.6994 3.98096L18.1431 3.98853Z" fill="#FCFCFD"/>
<path fill-rule="evenodd" clip-rule="evenodd" d="M24.9655 47.707C25.1584 47.707 25.3428 47.6292 25.4751 47.4912L41.7262 30.5927C41.9918 30.3166 41.9789 29.8814 41.6974 29.6209L28.3831 17.2991C28.375 17.2916 28.3668 17.2843 28.3584 17.2773L30.3656 19.1348L15.3151 34.7851L12.8223 32.4781L7.6591 37.8471C7.39348 38.1233 7.40636 38.5584 7.68791 38.8189L17.092 47.522C17.2221 47.6426 17.3942 47.7093 17.5731 47.7093L24.9655 47.707Z" fill="#FCFCFD"/>
<mask id="mask0_334_755" style="mask-type:luminance" maskUnits="userSpaceOnUse" x="46" y="14" width="163" height="24">
<path d="M208.967 14.4956H46.408V37.5045H208.967V14.4956Z" fill="white"/>
</mask>
<g mask="url(#mask0_334_755)">
<path d="M46.6058 15.2122H58.2508V18.3518H50.3225V22.1729H56.7639V25.1664H50.3225V29.1092H58.5235V32.2488H46.6058V15.2122ZM79.1445 20.9316C79.9868 21.8322 80.4328 23.3167 80.4328 25.3855V32.2731H76.9394V25.2638C76.9394 23.3654 76.196 22.4163 74.7344 22.4163C73.9661 22.4163 73.3468 22.684 72.9008 23.2194C72.43 23.7548 72.207 24.485 72.207 25.4098V32.2731H68.7136V25.2638C68.7136 23.3654 67.9702 22.4163 66.4837 22.4163C65.7154 22.4163 65.0961 22.7083 64.6501 23.2438C64.2041 23.7792 63.9811 24.5093 63.9811 25.4342V32.2731H60.4878V19.7391H63.5352L63.8575 21.2967C64.2786 20.7613 64.7991 20.3475 65.3936 20.0555C65.9881 19.7634 66.7315 19.6174 67.6235 19.5931C69.4322 19.5931 70.6957 20.2988 71.4143 21.7104C71.8603 21.029 72.4796 20.5179 73.2226 20.1528C73.9661 19.7878 74.8332 19.5931 75.7997 19.5931C77.1624 19.5931 78.2774 20.0555 79.1445 20.9316ZM93.0084 20.3962C93.9003 20.9316 94.5937 21.6618 95.0893 22.6353C95.585 23.6088 95.8576 24.7527 95.8576 26.0183C95.8576 27.3082 95.585 28.4277 95.0893 29.3769C94.5937 30.3504 93.9003 31.0806 93.0084 31.616C92.1164 32.1514 91.1003 32.3948 89.9605 32.3948C88.3256 32.3948 87.0368 31.835 86.1205 30.6668V37.1163H82.6267V19.7391H85.6745L86.0212 21.4671C86.4423 20.9073 86.9876 20.4449 87.6566 20.1042C88.3256 19.7634 89.0934 19.5931 89.9854 19.5931C91.1251 19.5931 92.1164 19.8608 93.0084 20.3962ZM91.4474 28.5981C92.0171 27.9166 92.3146 27.0404 92.3146 25.9696C92.3146 24.8987 92.0171 24.0469 91.4474 23.3898C90.8525 22.7326 90.1095 22.3919 89.1679 22.3919C88.2263 22.3919 87.4584 22.7326 86.9131 23.3898C86.3435 24.0469 86.0708 24.8987 86.0708 25.9696C86.0708 27.0648 86.3435 27.941 86.9131 28.5981C87.4584 29.2795 88.2263 29.5959 89.1679 29.5959C90.1095 29.5959 90.8525 29.2795 91.4474 28.5981ZM110.334 29.3526V32.2488H108.551C106.94 32.2488 106.147 31.5673 106.197 30.2044C105.726 30.9345 105.156 31.47 104.487 31.835C103.793 32.2244 102.976 32.3948 102.034 32.3948C100.597 32.3948 99.4578 32.0784 98.5902 31.4456C97.7231 30.8128 97.3019 29.888 97.3019 28.7198C97.3019 27.4055 97.7975 26.3833 98.7888 25.6532C99.7796 24.9231 101.242 24.558 103.149 24.558H105.676V23.9495C105.676 23.3898 105.453 22.9517 105.032 22.611C104.586 22.2702 104.016 22.0998 103.298 22.0998C102.654 22.0998 102.109 22.2459 101.712 22.5136C101.291 22.8057 101.043 23.1707 100.969 23.6332H97.5994C97.6987 22.3676 98.2932 21.3697 99.3336 20.6639C100.374 19.9581 101.737 19.5931 103.471 19.5931C105.255 19.5931 106.643 19.9825 107.634 20.7613C108.625 21.5401 109.12 22.684 109.12 24.1442V28.5494C109.12 28.8658 109.17 29.0848 109.319 29.1822C109.442 29.3039 109.641 29.3526 109.938 29.3526H110.334ZM105.676 26.8457H103.124C102.381 26.8457 101.811 26.9918 101.415 27.2838C101.019 27.5759 100.82 27.9653 100.82 28.4764C100.82 28.9145 100.969 29.2795 101.316 29.5229C101.663 29.7906 102.109 29.9123 102.703 29.9123C103.595 29.9123 104.314 29.6689 104.859 29.1579C105.379 28.6467 105.652 27.9653 105.676 27.0891V26.8457ZM113.728 19.7391L116.825 28.7198L119.848 19.7391H123.589L117.94 34.0254C117.643 34.8042 117.345 35.3883 117.097 35.8264C116.825 36.2645 116.478 36.5809 116.082 36.8C115.686 37.019 115.165 37.1163 114.521 37.1163H111.126V34.2201H113.059C113.505 34.2201 113.827 34.1471 114.025 34.0011C114.223 33.8551 114.397 33.5873 114.595 33.1492L114.917 32.3218L110.011 19.7391H113.728ZM143.432 20.9316C144.275 21.8322 144.721 23.3167 144.721 25.3855V32.2731H141.227V25.2638C141.227 23.3654 140.484 22.4163 139.022 22.4163C138.254 22.4163 137.635 22.684 137.189 23.2194C136.718 23.7548 136.495 24.485 136.495 25.4098V32.2731H133.002V25.2638C133.002 23.3654 132.258 22.4163 130.772 22.4163C130.004 22.4163 129.384 22.7083 128.938 23.2438C128.492 23.7792 128.269 24.5093 128.269 25.4342V32.2731H124.776V19.7391H127.823L128.145 21.2967C128.567 20.7613 129.087 20.3475 129.681 20.0555C130.276 19.7634 131.019 19.6174 131.911 19.5931C133.72 19.5931 134.984 20.2988 135.702 21.7104C136.148 21.029 136.768 20.5179 137.511 20.1528C138.254 19.7878 139.121 19.5931 140.088 19.5931C141.45 19.5931 142.565 20.0555 143.432 20.9316ZM147.212 22.6353C147.757 21.6618 148.5 20.9316 149.467 20.3962C150.433 19.8608 151.548 19.5931 152.836 19.5931C154.125 19.5931 155.24 19.8608 156.231 20.3475C157.222 20.8343 157.99 21.5401 158.535 22.4406C159.08 23.3411 159.377 24.3876 159.402 25.6045C159.402 26.0426 159.352 26.432 159.303 26.7728H150.061V26.8701C150.136 27.795 150.433 28.5007 150.953 29.0118C151.449 29.5473 152.168 29.7906 153.059 29.7906C153.753 29.7906 154.348 29.6446 154.819 29.3526C155.289 29.0605 155.611 28.5981 155.76 28.0139H159.204C159.055 28.8414 158.733 29.5959 158.237 30.2531C157.717 30.9345 157.049 31.4456 156.206 31.835C155.363 32.2244 154.397 32.3948 153.307 32.3948C151.87 32.3948 150.656 32.1514 149.615 31.616C148.575 31.1049 147.782 30.3747 147.237 29.4012C146.692 28.4277 146.419 27.3082 146.419 26.0183C146.419 24.7284 146.667 23.6088 147.212 22.6353ZM155.909 24.5337C155.785 23.7792 155.463 23.1951 154.942 22.7813C154.422 22.3676 153.778 22.1485 152.985 22.1485C152.217 22.1485 151.573 22.3676 151.053 22.8057C150.532 23.2438 150.235 23.8035 150.136 24.5337H155.909ZM172.287 20.956C173.229 21.8808 173.724 23.3654 173.724 25.4585V32.2488H170.231V25.6532C170.231 23.5114 169.364 22.4163 167.654 22.4163C166.737 22.4163 166.044 22.7326 165.548 23.3167C165.053 23.9252 164.805 24.777 164.805 25.8479V32.2488H161.311V19.7391H164.359L164.681 21.2967C165.127 20.7613 165.647 20.3475 166.291 20.0555C166.911 19.7634 167.679 19.5931 168.62 19.5931C170.107 19.5931 171.321 20.0555 172.287 20.956ZM176.743 22.6353H174.637V19.7391H176.743V16.2344H180.237V19.7391H183.136V22.6353H180.237V28.1113C180.237 28.5494 180.311 28.8658 180.509 29.0605C180.708 29.2552 181.029 29.3526 181.475 29.3526H183.284V32.2488H180.385C177.957 32.2488 176.743 31.0562 176.743 28.6711V22.6353ZM185.298 28.9145C185.694 28.5251 186.19 28.3304 186.809 28.3304C187.403 28.3304 187.899 28.5251 188.295 28.9145C188.692 29.3039 188.915 29.7906 188.915 30.3747C188.915 30.9589 188.692 31.4456 188.295 31.835C187.899 32.2244 187.403 32.3948 186.809 32.3948C186.19 32.3948 185.694 32.2244 185.298 31.835C184.901 31.4456 184.703 30.9589 184.703 30.3747C184.703 29.7906 184.901 29.3039 185.298 28.9145ZM203.633 29.3526V32.2488H201.849C200.239 32.2488 199.446 31.5673 199.495 30.2044C199.025 30.9345 198.455 31.47 197.786 31.835C197.092 32.2244 196.274 32.3948 195.333 32.3948C193.896 32.3948 192.756 32.0784 191.889 31.4456C191.022 30.8128 190.601 29.888 190.601 28.7198C190.601 27.4055 191.096 26.3833 192.087 25.6532C193.078 24.9231 194.54 24.558 196.448 24.558H198.975V23.9495C198.975 23.3898 198.752 22.9517 198.331 22.611C197.885 22.2702 197.315 22.0998 196.597 22.0998C195.952 22.0998 195.407 22.2459 195.011 22.5136C194.59 22.8057 194.342 23.1707 194.268 23.6332H190.898C190.997 22.3676 191.592 21.3697 192.632 20.6639C193.673 19.9581 195.036 19.5931 196.77 19.5931C198.554 19.5931 199.941 19.9825 200.932 20.7613C201.924 21.5401 202.419 22.684 202.419 24.1442V28.5494C202.419 28.8658 202.468 29.0848 202.617 29.1822C202.741 29.3039 202.939 29.3526 203.237 29.3526H203.633ZM198.975 26.8457H196.423C195.68 26.8457 195.11 26.9918 194.714 27.2838C194.317 27.5759 194.119 27.9653 194.119 28.4764C194.119 28.9145 194.268 29.2795 194.615 29.5229C194.961 29.7906 195.407 29.9123 196.002 29.9123C196.894 29.9123 197.612 29.6689 198.158 29.1579C198.678 28.6467 198.95 27.9653 198.975 27.0891V26.8457ZM208.181 15.0905C208.552 15.4556 208.751 15.918 208.751 16.4535C208.751 17.0132 208.552 17.4757 208.181 17.8407C207.784 18.2301 207.314 18.4005 206.744 18.4005C206.149 18.4005 205.678 18.2301 205.282 17.8407C204.886 17.4757 204.712 17.0132 204.712 16.4535C204.712 15.918 204.886 15.4556 205.282 15.0905C205.678 14.7255 206.149 14.5308 206.744 14.5308C207.314 14.5308 207.784 14.7255 208.181 15.0905ZM204.985 19.7391H208.478V32.2488H204.985V19.7391Z" fill="#FCFCFD"/>
</g>
</g>
<defs>
<clipPath id="clip0_334_755">
<rect width="208" height="52" fill="white" transform="translate(0.966553)"/>
</clipPath>
</defs>
</svg>
