<svg width="19" height="20" viewBox="0 0 19 20" fill="none" xmlns="http://www.w3.org/2000/svg">
<path fill-rule="evenodd" clip-rule="evenodd" d="M3.916 9.12351C12.8903 -0.481458 17.0312 0.396191 18.379 0.97C18.9528 2.31787 19.8305 6.45874 10.2255 15.433C9.89919 10.8641 8.48498 9.44984 3.916 9.12351ZM14.8492 6.62143C14.2634 7.20722 13.3137 7.20722 12.7279 6.62143C12.1421 6.03565 12.1421 5.0859 12.7279 4.50011C13.3137 3.91433 14.2634 3.91433 14.8492 4.50011C15.435 5.0859 15.435 6.03565 14.8492 6.62143Z" fill="#344054"/>
<path d="M6.71751 4.66333C5.78752 3.96904 2.83282 4.45559 0 7.84531C0.83594 8.68125 1.80656 8.46616 2.54122 8.30336C2.78541 8.24924 3.00354 8.20091 3.18198 8.19886L6.71751 4.66333Z" fill="#344054"/>
<path d="M14.4958 12.6321C15.1901 13.5621 14.7036 16.5168 11.3139 19.3496C10.4779 18.5137 10.693 17.543 10.8558 16.8084C10.9099 16.5642 10.9583 16.3461 10.9603 16.1676L14.4958 12.6321Z" fill="#344054"/>
<path d="M3.88896 15.4604C3.88896 15.4604 4.36036 13.1034 4.94962 12.2784C4.94962 12.2784 6.21956 12.1341 6.71738 12.6319C7.21521 13.1298 7.07094 14.3997 7.07094 14.3997C5.89243 15.1068 3.88896 15.4604 3.88896 15.4604Z" fill="#344054"/>
</svg>
