<svg width="223" height="317" viewBox="0 0 223 317" fill="none" xmlns="http://www.w3.org/2000/svg">
<path opacity="0.2" fill-rule="evenodd" clip-rule="evenodd" d="M49.4819 1.6179C50.4244 0.621539 51.7359 0.0562277 53.1089 0.0548179L106.898 2.38255e-06C108.174 -0.00124152 109.402 0.484627 110.33 1.35793L176.677 63.8105C178.682 65.6988 178.775 68.8508 176.882 70.8527L36.4044 219.429C34.512 221.43 31.3521 221.522 29.3466 219.634L-65.4335 130.418C-67.439 128.53 -67.5311 125.377 -65.639 123.376L49.4819 1.6179ZM105.31 315.059C104.368 316.056 103.055 316.621 101.681 316.622L49.0572 316.638C47.7823 316.639 46.5564 316.153 45.6297 315.28L-21.3154 252.265C-23.3209 250.377 -23.4132 247.224 -21.5216 245.223L118.957 96.6454C120.849 94.6444 124.008 94.5532 126.015 96.4406L220.795 185.657C222.8 187.546 222.892 190.698 221 192.7L105.31 315.059Z" fill="white"/>
</svg>
